<svg xmlns="http://www.w3.org/2000/svg" version="1.1" xmlns:xlink="http://www.w3.org/1999/xlink" xmlns:svgjs="http://svgjs.dev/svgjs" width="2048" height="2048"><svg width="2048" height="2048" xmlns="http://www.w3.org/2000/svg">
   <rect width="100%" height="100%" fill="#151f28"></rect>
   <path style="fill:#fff;stroke:none;stroke-width:2px;stroke-linecap:butt;stroke-linejoin:miter;stroke-opacity:1" d="m825.23 351.952.116 150.646c.048 63.996 64.748 126.806 134.094 127.12l117.846.532c161.94.732 368.07 130.056 368.07 400.334 0 251.754-204.584 385.158-362.876 385.474l-364.144.728-.986-1064.5-131.518-.39c-87.52-.26-154.374 78.036-154.36 153.572l.16 1036.592c.01 66.626 60.102 152.706 158.606 152.57l482.158-.668c341.054-.472 659.63-260.348 659.63-675.198 0-343.192-260.642-666.832-678.864-666.82z"></path>
</svg><style>@media (prefers-color-scheme: light) { :root { filter: none; } }
@media (prefers-color-scheme: dark) { :root { filter: none; } }
</style></svg>